<svg xmlns="http://www.w3.org/2000/svg" version="1.1" xmlns:xlink="http://www.w3.org/1999/xlink" xmlns:svgjs="http://svgjs.dev/svgjs" width="1440" height="560" preserveAspectRatio="none" viewBox="0 0 1440 560"><g mask="url(&quot;#SvgjsMask1000&quot;)" fill="none"><path d="M771.55 609.33C888.44 547.39 829.42 161.86 1048.1 158.21 1266.78 154.56 1456.29 329.79 1601.2 331.81" stroke="rgba(0, 173, 181, 1)" stroke-width="2"></path><path d="M817 648.58C926.91 587.13 869.91 218.59 1073.15 214.88 1276.38 211.17 1450.67 380.75 1585.44 382.88" stroke="rgba(0, 173, 181, 1)" stroke-width="2"></path><path d="M569.09 608.63C687.83 561.22 607.34 218.06 872.74 197.13 1138.13 176.2 1324.23 58.03 1480.03 57.13" stroke="rgba(0, 173, 181, 1)" stroke-width="2"></path><path d="M625.26 575.82C750.64 536.97 705.24 178.53 967.18 177.4 1229.13 176.27 1473.94 360.58 1651.03 362.2" stroke="rgba(0, 173, 181, 1)" stroke-width="2"></path><path d="M487.72 587.09C639.25 576.87 725.02 298.88 1015.98 287.12 1306.94 275.36 1403.89 99.6 1544.24 96.72" stroke="rgba(0, 173, 181, 1)" stroke-width="2"></path></g><defs><mask id="SvgjsMask1000"><rect width="1440" height="560" fill="#ffffff"></rect></mask></defs></svg>